<svg width="30" height="30" viewBox="0 0 30 30" fill="none" xmlns="http://www.w3.org/2000/svg">
<path d="M15.6784 19.9123L25.6346 9.46294C25.8008 9.28858 25.8936 9.05694 25.8936 8.81606C25.8936 8.57518 25.8008 8.34354 25.6346 8.16919L25.6234 8.15794C25.5428 8.07312 25.4458 8.00558 25.3383 7.95943C25.2308 7.91328 25.115 7.88948 24.9981 7.88948C24.8811 7.88948 24.7653 7.91328 24.6578 7.95943C24.5503 8.00558 24.4533 8.07312 24.3728 8.15794L14.9978 17.9979L5.6265 8.15794C5.54592 8.07312 5.44894 8.00559 5.34144 7.95944C5.23394 7.91328 5.11817 7.88949 5.00119 7.88949C4.8842 7.88949 4.76844 7.91328 4.66094 7.95944C4.55344 8.00559 4.45645 8.07312 4.37587 8.15794L4.36462 8.16919C4.19841 8.34354 4.10569 8.57518 4.10569 8.81606C4.10569 9.05695 4.19841 9.28859 4.36462 9.46294L14.3209 19.9123C14.4084 20.0042 14.5137 20.0774 14.6304 20.1274C14.7471 20.1773 14.8727 20.2031 14.9996 20.2031C15.1266 20.2031 15.2522 20.1773 15.3688 20.1274C15.4855 20.0774 15.5908 20.0042 15.6784 19.9123Z" fill="#00D5E4"/>
</svg>
