<svg width="30" height="62" viewBox="0 0 30 62" fill="none" xmlns="http://www.w3.org/2000/svg">
<path d="M5.36568 59.5167C6.67461 60.0921 8.02805 60.56 9.41225 60.9169C12.1654 61.63 14.9787 61.8976 17.7408 61.8622C18.3443 61.8545 18.8995 61.5326 19.206 61.0129C19.5122 60.493 19.5254 59.8512 19.24 59.3195C18.955 58.7881 18.4126 58.4441 17.8102 58.412L17.8022 58.4116C15.3723 58.2826 12.9836 57.893 10.7334 57.1712L10.7338 57.1713C13.0693 55.416 15.289 53.5117 17.3787 51.4701C17.6418 51.2082 17.9089 50.9513 18.1682 50.6855L18.9399 49.8787L19.3252 49.4752L19.7002 49.059L20.4489 48.2259C20.6942 47.9431 20.9315 47.6526 21.1729 47.3662L21.5333 46.935C21.6524 46.7902 21.7663 46.6398 21.8829 46.4927L22.5777 45.6047L23.2458 44.6913C23.3561 44.5383 23.4695 44.3881 23.5772 44.2323L23.8963 43.7624C24.1065 43.4471 24.3269 43.1408 24.5257 42.8163L25.1267 41.8479C25.3249 41.5236 25.5081 41.1877 25.6987 40.8582L25.6987 40.8573C26.4541 39.5222 27.1238 38.1405 27.7043 36.7205C28.8428 33.8573 29.6137 30.8002 29.8068 27.681C30.0065 24.5683 29.6444 21.4454 28.7378 18.461C27.835 15.533 26.4449 12.7782 24.6257 10.3125C23.7316 9.09838 22.7444 7.95573 21.6728 6.89472C21.132 6.37285 20.5846 5.8602 20.0063 5.38169C19.4345 4.89718 18.841 4.43912 18.2267 4.00761C17.6149 3.57422 16.9774 3.17521 16.3302 2.79511L16.33 2.79546C15.6754 2.42043 15.0026 2.07887 14.3139 1.77209C12.9254 1.17153 11.4575 0.697094 9.88394 0.549966C9.32724 0.497945 8.82633 0.887838 8.74003 1.4401C8.65394 1.992 9.01242 2.51625 9.55811 2.63654L9.57785 2.64068C10.199 2.78292 10.8051 2.98248 11.3891 3.23716C11.9877 3.49274 12.5703 3.78525 13.1334 4.11281C13.6978 4.44851 14.2488 4.80925 14.7855 5.19468C15.3168 5.58899 15.8373 5.99664 16.3346 6.43533L16.3349 6.43552C17.3322 7.30714 18.2605 8.2546 19.1112 9.26988C19.9532 10.283 20.7213 11.3551 21.4096 12.4777C22.083 13.5942 22.6697 14.76 23.1648 15.9661C23.6569 17.1555 24.0439 18.3858 24.3209 19.6427C24.5943 20.8848 24.7616 22.1481 24.822 23.4186C24.8783 24.6809 24.8224 25.9457 24.6552 27.1984C24.4867 28.4518 24.219 29.6896 23.8535 30.8999C23.4825 32.1186 23.0239 33.3091 22.4809 34.4615C21.3616 36.8021 19.981 39.0085 18.3649 41.0386L17.753 41.8094L17.1133 42.5628C17.0061 42.688 16.9024 42.8152 16.7922 42.9383L16.4586 43.3059L15.7924 44.0408L15.1043 44.7607L14.7606 45.1209L14.4042 45.4716L13.6927 46.1734C13.453 46.4051 13.2038 46.6297 12.9605 46.858C11.0813 48.619 9.07331 50.2676 7.00039 51.8532C7.23157 51.1996 7.44106 50.537 7.62816 49.8661L7.62905 49.8661C8.30197 47.4594 8.64542 44.9724 8.64964 42.4732C8.6493 41.72 8.25011 41.0237 7.59987 40.6433C6.95002 40.2631 6.14729 40.256 5.49062 40.6245C4.83395 40.9931 4.42215 41.6822 4.4083 42.4353L4.40813 42.4389L4.40833 42.4385C4.36558 44.5488 4.03684 46.6428 3.43085 48.6642C2.81235 50.708 1.96362 52.6746 0.901139 54.5263L1.57473 57.4558C2.77877 58.2468 4.04696 58.9363 5.36549 59.5166L5.36568 59.5167Z" fill="#00D5E4"/>
</svg>
